<?xml version="1.0" encoding="utf-8"?>
<!-- Generator: Adobe Illustrator 15.1.0, SVG Export Plug-In . SVG Version: 6.00 Build 0)  -->
<!DOCTYPE svg PUBLIC "-//W3C//DTD SVG 1.1//EN" "http://www.w3.org/Graphics/SVG/1.1/DTD/svg11.dtd">
<svg version="1.1" id="Layer_1" focusable="false" xmlns="http://www.w3.org/2000/svg" xmlns:xlink="http://www.w3.org/1999/xlink"
	 x="0px" y="0px" width="1323.131px" height="1323.13px" viewBox="-422.665 -227.652 1323.131 1323.13"
	 enable-background="new -422.665 -227.652 1323.131 1323.13" xml:space="preserve">
<circle cx="238.901" cy="433.913" r="661.566"/>
<path fill="#FFFFFF" stroke="#000000" stroke-width="4" stroke-miterlimit="10" d="M490.262,379.27
	c-30.181,0-54.645,24.465-54.645,54.644h-10.928V390.2c0-30.179-24.464-54.644-54.645-54.644c-30.179,0-54.643,24.465-54.643,54.644
	v43.714h-10.929V149.77c0-36.214-29.356-65.571-65.571-65.571c-36.214,0-65.571,29.357-65.571,65.571v284.144H154.79l-95.27-242.548
	c-13.243-33.708-51.302-50.297-85.007-37.055c-33.707,13.241-50.294,51.3-37.053,85.006L39.594,499.339l-42.471,33.979
	c-21.012,16.811-26.659,46.416-13.307,69.779l87.428,153c9.729,17.025,27.834,27.532,47.442,27.531h327.856
	c25.357,0,47.385-17.444,53.191-42.127l43.714-185.785c0.966-4.103,1.453-8.302,1.452-12.516V433.914
	C544.904,403.735,520.44,379.27,490.262,379.27z"/>
</svg>
