<?xml version="1.0" encoding="utf-8"?>
<!-- Generator: Adobe Illustrator 15.1.0, SVG Export Plug-In . SVG Version: 6.00 Build 0)  -->
<!DOCTYPE svg PUBLIC "-//W3C//DTD SVG 1.1//EN" "http://www.w3.org/Graphics/SVG/1.1/DTD/svg11.dtd">
<svg version="1.1" id="Layer_1" focusable="false" xmlns="http://www.w3.org/2000/svg" xmlns:xlink="http://www.w3.org/1999/xlink"
	 x="0px" y="0px" width="612px" height="792px" viewBox="0 0 612 792" enable-background="new 0 0 612 792" xml:space="preserve">
<path fill="#FFFFFF" stroke="#000000" stroke-width="4" stroke-miterlimit="10" d="M557.357,341.357
	c-30.18,0-54.644,24.465-54.644,54.643h-10.928v-43.714c0-30.178-24.464-54.643-54.644-54.643
	c-30.179,0-54.643,24.465-54.643,54.643V396h-10.929V111.857c0-36.214-29.356-65.571-65.571-65.571
	c-36.214,0-65.571,29.357-65.571,65.571V396h-18.541l-95.27-242.547c-13.243-33.708-51.302-50.297-85.007-37.055
	c-33.707,13.241-50.294,51.3-37.053,85.006l102.134,260.021l-42.471,33.978c-21.012,16.811-26.659,46.416-13.307,69.78l87.428,153
	c9.729,17.025,27.834,27.532,47.442,27.531h327.857c25.357,0,47.384-17.444,53.191-42.127l43.714-185.785
	c0.966-4.103,1.453-8.302,1.452-12.516V396C612,365.822,587.536,341.357,557.357,341.357z"/>
</svg>
