<?xml version="1.0" encoding="utf-8"?>
<!-- Generator: Adobe Illustrator 15.1.0, SVG Export Plug-In . SVG Version: 6.00 Build 0)  -->
<!DOCTYPE svg PUBLIC "-//W3C//DTD SVG 1.1//EN" "http://www.w3.org/Graphics/SVG/1.1/DTD/svg11.dtd">
<svg version="1.1" id="Layer_1" xmlns="http://www.w3.org/2000/svg" xmlns:xlink="http://www.w3.org/1999/xlink" x="0px" y="0px"
	 width="301.175px" height="101.5px" viewBox="0 0 301.175 101.5" enable-background="new 0 0 301.175 101.5" xml:space="preserve">
<g>
	
		<polyline fill="none" stroke="#84D2F6" stroke-width="1.5" stroke-linecap="round" stroke-linejoin="round" stroke-miterlimit="10" points="
		0.75,100.75 1.689,100.662 1.689,100.403 1.689,100.314 1.689,99.968 1.689,99.968 1.689,99.619 1.689,99.619 1.689,99.361 
		2.61,99.187 2.61,98.926 2.61,99.013 2.61,98.75 2.61,98.579 2.61,98.579 2.61,98.232 2.61,98.058 2.61,97.884 3.543,97.624 
		3.543,97.537 3.543,97.537 3.543,97.192 3.543,97.277 3.543,97.45 3.543,96.842 4.473,96.755 4.473,96.755 4.473,96.323 
		4.473,96.408 4.473,96.323 4.473,96.234 4.473,96.061 4.473,96.061 4.473,95.802 5.403,95.54 5.403,95.54 5.403,95.368 
		5.403,95.281 5.403,95.192 5.403,95.107 5.403,95.107 5.403,94.76 6.335,94.76 6.335,94.671 6.335,94.413 6.335,94.326 
		6.335,94.413 6.335,94.152 6.335,94.239 6.335,94.065 	"/>
	
		<polyline fill="none" stroke="#84D2F6" stroke-width="1.5" stroke-linecap="round" stroke-linejoin="round" stroke-miterlimit="10" points="
		7.257,92.938 8.196,92.938 8.196,92.591 8.196,92.675 8.196,92.329 8.196,92.329 8.196,92.242 8.196,91.981 8.196,91.896 
		8.196,91.807 9.127,91.633 9.127,91.375 9.127,91.548 9.127,91.287 9.127,91.287 9.127,91.113 9.127,90.939 9.127,90.854 
		10.061,90.68 10.061,90.68 10.061,90.506 10.061,90.591 10.061,90.417 10.061,90.333 10.061,90.333 10.061,90.16 10.061,89.986 
		10.99,89.897 10.99,89.986 10.99,89.812 10.99,89.812 10.99,89.464 10.99,89.464 10.99,89.291 10.99,89.464 11.922,89.291 
		11.922,89.031 11.922,89.118 11.922,88.944 11.922,88.944 11.922,88.859 	"/>
	
		<polyline fill="none" stroke="#84D2F6" stroke-width="1.5" stroke-linecap="round" stroke-linejoin="round" stroke-miterlimit="10" points="
		6.335,94.065 6.335,93.891 7.257,93.718 7.257,93.544 7.257,93.718 7.257,93.284 7.257,93.284 7.257,93.197 7.257,93.197 
		7.257,92.938 	"/>
	
		<polyline fill="none" stroke="#84D2F6" stroke-width="1.5" stroke-linecap="round" stroke-linejoin="round" stroke-miterlimit="10" points="
		11.922,88.859 11.922,88.683 11.922,88.509 11.922,88.422 12.842,88.337 12.842,88.249 12.842,88.337 12.842,88.249 12.842,88.075 
		12.842,87.902 12.842,87.902 12.842,87.728 13.781,87.641 13.781,87.554 13.781,87.554 13.781,87.295 13.781,87.38 13.781,87.469 
		13.781,87.12 13.781,87.12 14.713,86.775 14.713,86.775 14.713,86.859 14.713,86.512 14.713,86.512 14.713,86.427 14.713,86.253 
		14.713,86.338 15.646,86.253 15.646,86.165 15.646,85.817 15.646,86.165 15.646,85.993 15.646,85.732 15.646,85.472 15.646,85.559 
		15.646,85.472 16.576,85.296 16.576,85.211 16.576,85.125 16.576,85.125 16.576,84.864 16.576,84.775 16.576,84.69 16.576,84.43 
		17.495,84.516 17.495,84.516 17.495,84.169 17.495,84.258 17.495,84.083 	"/>
	
		<polyline fill="none" stroke="#84D2F6" stroke-width="1.5" stroke-linecap="round" stroke-linejoin="round" stroke-miterlimit="10" points="
		17.495,84.083 17.495,83.996 17.495,83.822 17.495,83.737 17.495,83.474 18.428,83.387 18.428,83.387 18.428,83.216 18.428,83.127 
		18.428,82.954 18.428,83.041 18.428,82.695 18.428,82.606 19.36,82.347 19.36,81.999 19.36,82.085 19.36,82.085 19.36,81.653 
		19.36,81.653 19.36,81.564 19.36,81.216 20.298,81.305 20.298,80.958 20.298,80.785 20.298,80.437 20.298,80.524 20.298,80.35 
		20.298,80.174 20.298,80.002 21.231,79.916 21.231,79.743 21.231,79.395 21.231,79.221 21.231,79.136 21.231,78.874 21.231,78.527 
		21.231,78.527 21.231,78.353 22.154,78.179 22.154,77.747 22.154,77.573 22.154,77.485 22.154,77.398 22.154,77.226 22.154,76.792 
		22.154,76.531 23.085,76.442 23.085,76.271 23.085,76.01 	"/>
	
		<polyline fill="none" stroke="#84D2F6" stroke-width="1.5" stroke-linecap="round" stroke-linejoin="round" stroke-miterlimit="10" points="
		23.085,76.01 23.085,75.836 23.085,75.574 23.085,75.228 23.085,75.142 23.085,74.794 23.085,74.621 24.014,74.099 24.014,73.839 
		24.014,73.752 24.014,73.405 24.014,73.057 24.014,72.71 24.014,72.363 24.946,71.583 24.946,69.759 24.946,65.68 24.946,58.909 
		24.946,48.493 24.946,35.645 24.946,22.624 24.946,12.034 24.946,5.784 25.888,4.134 25.888,6.912 25.888,12.902 25.888,21.235 
		25.888,31.478 25.888,41.461 25.888,51.355 25.888,60.297 26.796,68.025 26.796,74.708 26.796,79.916 26.796,84.258 26.796,87.38 
		26.796,89.638 26.796,91.202 26.796,91.981 26.796,92.675 27.739,92.675 27.739,92.242 27.739,91.807 27.739,90.939 27.739,90.16 
		27.739,89.204 27.739,88.162 27.739,87.12 28.67,85.993 28.67,85.125 	"/>
	
		<polyline fill="none" stroke="#84D2F6" stroke-width="1.5" stroke-linecap="round" stroke-linejoin="round" stroke-miterlimit="10" points="
		28.67,85.125 28.67,84.083 28.67,83.216 28.67,82.173 28.67,81.564 28.67,80.696 28.67,80.089 28.67,79.395 29.6,78.7 29.6,78.179 
		29.6,77.658 29.6,77.226 29.6,76.705 29.6,76.184 29.6,75.836 29.6,75.315 30.531,74.968 30.531,74.447 30.531,74.014 
		30.531,73.666 30.531,73.405 30.531,72.972 30.531,72.537 30.531,72.363 30.531,71.67 31.475,71.583 31.475,70.973 31.475,70.541 
		31.475,69.931 31.475,68.893 31.475,66.461 31.475,61.772 31.475,55.002 32.384,44.933 32.384,33.3 32.384,21.408 32.384,12.034 
		32.384,5.437 32.384,3.354 32.384,4.655 32.384,8.562 32.384,15.246 33.323,23.232 33.323,32.086 33.323,41.2 33.323,49.881 
		33.323,57.693 33.323,64.724 33.323,70.627 33.323,75.574 	"/>
	
		<polyline fill="none" stroke="#84D2F6" stroke-width="1.5" stroke-linecap="round" stroke-linejoin="round" stroke-miterlimit="10" points="
		33.323,75.574 34.255,79.654 34.255,82.432 34.255,84.864 34.255,86.338 34.255,87.207 34.255,87.902 34.255,88.075 34.255,87.902 
		35.186,87.554 35.186,86.948 35.186,86.427 35.186,85.472 35.186,84.69 35.186,83.737 35.186,82.869 35.186,82.258 36.118,81.564 
		36.118,80.611 36.118,80.002 36.118,79.308 36.118,78.7 36.118,78.094 36.118,77.573 36.118,77.226 36.118,76.616 37.038,76.095 
		37.038,75.836 37.038,75.489 37.038,75.142 37.038,74.708 37.038,74.36 37.038,74.099 37.038,73.579 37.969,73.405 37.969,73.146 
		37.969,72.972 37.969,72.71 37.969,72.452 37.969,72.278 37.969,71.93 37.969,71.841 37.969,71.495 38.908,71.321 38.908,70.973 
		38.908,70.714 38.908,70.627 38.908,70.541 38.908,70.02 38.908,69.846 	"/>
	
		<polyline fill="none" stroke="#84D2F6" stroke-width="1.5" stroke-linecap="round" stroke-linejoin="round" stroke-miterlimit="10" points="
		38.908,69.846 38.908,69.672 39.841,69.326 39.841,69.065 39.841,68.283 39.841,66.461 39.841,62.729 39.841,57.26 39.841,49.014 
		39.841,38.595 39.841,26.791 40.773,15.594 40.773,7.433 40.773,2.311 40.773,0.75 40.773,1.965 40.773,5.958 40.773,11.774 
		40.773,18.892 41.704,26.53 41.704,34.778 41.704,43.111 41.704,50.75 41.704,57.867 41.704,63.943 41.704,69.499 41.704,73.926 
		41.704,77.573 42.624,80.611 42.624,82.519 42.624,84.083 42.624,85.038 42.624,85.817 42.624,86.08 42.624,86.165 42.624,85.732 
		43.557,85.472 43.557,85.038 43.557,84.343 43.557,83.737 43.557,83.041 43.557,82.347 43.557,81.479 43.557,81.131 43.557,80.611 
		44.487,80.002 44.487,79.569 44.487,79.221 44.487,78.527 44.487,78.266 	"/>
	
		<polyline fill="none" stroke="#84D2F6" stroke-width="1.5" stroke-linecap="round" stroke-linejoin="round" stroke-miterlimit="10" points="
		44.487,78.266 44.487,77.832 44.487,77.573 45.426,77.485 45.426,76.876 45.426,76.705 45.426,76.442 45.426,76.442 45.426,76.184 
		45.426,75.836 45.426,75.923 45.426,75.836 46.358,75.489 46.358,75.402 46.358,75.315 46.358,75.142 46.358,75.053 46.358,74.968 
		46.358,74.794 46.358,74.536 47.281,74.621 47.281,74.536 47.281,74.273 47.281,74.36 47.281,74.186 47.281,74.099 47.281,73.839 
		47.281,73.752 47.281,73.752 48.209,73.752 48.209,73.494 48.209,73.494 48.209,73.146 48.209,73.057 48.209,73.057 48.209,72.972 
		49.142,73.057 49.142,72.972 49.142,72.883 49.142,72.797 49.142,72.537 49.142,72.625 49.142,72.537 49.142,72.625 49.142,72.363 
		50.072,72.278 50.072,72.363 50.072,72.278 50.072,72.104 	"/>
	
		<polyline fill="none" stroke="#84D2F6" stroke-width="1.5" stroke-linecap="round" stroke-linejoin="round" stroke-miterlimit="10" points="
		50.072,72.104 50.072,71.93 50.072,72.015 50.072,72.015 50.072,72.015 51.015,72.015 51.015,71.93 51.015,71.841 51.015,71.756 
		51.015,71.67 51.015,71.67 51.015,71.495 51.015,71.495 51.015,71.583 51.935,71.41 51.935,71.41 51.935,71.321 51.935,71.321 
		51.935,71.062 51.935,71.236 51.935,71.236 52.866,71.149 52.866,71.149 52.866,71.236 52.866,70.973 52.866,71.149 52.866,71.149 
		52.866,71.062 52.866,70.888 52.866,71.062 53.799,71.062 53.799,70.973 53.799,71.236 53.799,70.973 53.799,70.888 53.799,70.973 
		53.799,70.888 53.799,70.801 54.727,70.973 54.727,70.973 54.727,71.062 54.727,70.973 54.727,70.973 54.727,70.973 54.727,70.801 
		55.659,70.888 55.659,70.801 	"/>
	
		<polyline fill="none" stroke="#84D2F6" stroke-width="1.5" stroke-linecap="round" stroke-linejoin="round" stroke-miterlimit="10" points="
		55.659,70.801 55.659,70.973 55.659,70.973 55.659,70.973 55.659,70.973 55.659,70.888 56.603,70.888 56.603,71.062 56.603,71.062 
		56.603,70.714 56.603,71.062 56.603,70.973 57.52,70.973 57.52,70.888 57.52,71.062 57.52,70.973 57.52,70.973 57.52,70.973 
		57.52,70.973 57.52,71.149 58.451,71.062 58.451,70.973 58.451,71.149 58.451,71.149 58.451,70.973 58.451,71.236 58.451,71.236 
		58.451,71.149 59.382,71.149 59.382,71.236 59.382,71.321 59.382,71.236 59.382,71.321 59.382,71.41 59.382,71.495 59.382,71.67 
		60.314,71.321 60.314,71.583 60.314,71.495 60.314,71.583 60.314,71.67 60.314,71.41 60.314,71.583 60.314,71.67 60.314,71.67 
		61.244,71.67 	"/>
	
		<polyline fill="none" stroke="#84D2F6" stroke-width="1.5" stroke-linecap="round" stroke-linejoin="round" stroke-miterlimit="10" points="
		61.244,71.67 61.244,71.67 61.244,71.756 61.244,71.67 61.244,71.67 61.244,71.495 61.244,72.015 61.244,71.841 62.166,72.015 
		62.166,72.015 62.166,71.841 62.166,71.841 62.166,72.015 62.166,72.015 62.166,72.015 62.166,72.015 62.166,72.015 63.097,72.191 
		63.097,72.278 63.097,72.015 63.097,72.191 63.097,72.015 63.097,72.104 63.097,72.191 63.097,72.278 64.036,72.278 64.036,72.363 
		64.036,72.363 64.036,72.278 64.036,72.363 64.036,72.278 64.036,72.363 64.036,72.278 64.036,72.537 64.967,72.363 64.967,72.363 
		64.967,72.537 64.967,72.537 64.967,72.363 64.967,72.625 64.967,72.537 65.9,72.797 65.9,72.71 65.9,72.625 65.9,72.71 
		65.9,72.71 65.9,72.71 65.9,72.71 65.9,72.71 65.9,72.71 	"/>
	
		<polyline fill="none" stroke="#84D2F6" stroke-width="1.5" stroke-linecap="round" stroke-linejoin="round" stroke-miterlimit="10" points="
		65.9,72.71 66.83,72.71 66.83,72.537 66.83,72.71 66.83,72.71 66.83,72.797 66.83,72.883 66.83,72.71 67.751,72.797 67.751,72.972 
		67.751,72.797 67.751,72.797 67.751,72.883 67.751,72.972 67.751,72.972 67.751,73.057 67.751,72.883 68.682,73.146 68.682,73.057 
		68.682,73.057 68.682,72.972 68.682,73.057 68.682,73.231 69.625,73.146 69.625,73.231 69.625,73.146 69.625,73.231 69.625,73.231 
		69.625,73.057 69.625,73.318 69.625,73.146 69.625,73.405 70.553,73.405 70.553,73.146 70.553,73.579 70.553,73.494 70.553,73.405 
		70.553,73.666 70.553,73.579 70.553,73.752 71.485,73.579 71.485,73.666 71.485,73.752 71.485,73.752 71.485,73.666 71.485,73.752 
		71.485,73.752 	"/>
	
		<polyline fill="none" stroke="#84D2F6" stroke-width="1.5" stroke-linecap="round" stroke-linejoin="round" stroke-miterlimit="10" points="
		71.485,73.752 71.485,73.579 71.485,73.752 72.408,73.752 72.408,73.926 72.408,73.752 72.408,74.099 72.408,74.014 72.408,73.926 
		72.408,73.926 72.408,73.839 73.337,74.099 73.337,74.099 73.337,74.186 73.337,74.099 73.337,74.099 73.337,74.014 73.337,74.099 
		73.337,74.186 73.337,74.099 74.269,73.926 74.269,74.186 74.269,74.099 74.269,73.926 74.269,74.099 74.269,74.099 74.269,74.099 
		74.269,74.099 75.212,74.014 75.212,74.099 75.212,74.186 75.212,74.186 75.212,74.36 75.212,74.014 75.212,74.186 76.139,74.186 
		76.139,74.36 76.139,74.186 76.139,74.36 76.139,74.447 76.139,74.36 76.139,74.447 77.063,74.447 77.063,74.447 77.063,74.36 
		77.063,74.447 77.063,74.447 	"/>
	
		<polyline fill="none" stroke="#84D2F6" stroke-width="1.5" stroke-linecap="round" stroke-linejoin="round" stroke-miterlimit="10" points="
		77.063,74.447 77.063,74.36 77.063,74.447 77.063,74.447 77.993,74.36 77.993,74.536 77.993,74.447 77.993,74.447 77.993,74.447 
		77.993,74.621 77.993,74.536 77.993,74.447 78.925,74.621 78.925,74.621 78.925,74.794 78.925,74.621 78.925,74.794 78.925,74.536 
		78.925,74.794 78.925,74.794 79.854,74.794 79.854,74.621 79.854,74.881 79.854,74.794 79.854,74.794 79.854,74.708 79.854,74.968 
		80.796,74.794 80.796,75.142 80.796,74.968 80.796,75.228 80.796,75.142 80.796,74.881 80.796,74.968 80.796,75.053 80.796,75.142 
		81.707,75.142 81.707,75.142 81.707,75.228 81.707,75.228 81.707,75.142 81.707,75.142 81.707,75.142 81.707,75.228 82.647,75.228 
		82.647,75.315 82.647,75.489 	"/>
	
		<polyline fill="none" stroke="#84D2F6" stroke-width="1.5" stroke-linecap="round" stroke-linejoin="round" stroke-miterlimit="10" points="
		82.647,75.489 82.647,75.489 82.647,75.402 82.647,75.489 82.647,75.402 82.647,75.489 83.581,75.489 83.581,75.402 83.581,75.489 
		83.581,75.489 83.581,75.489 83.581,75.489 83.581,75.574 83.581,75.489 84.511,75.489 84.511,75.402 84.511,75.574 84.511,75.75 
		84.511,75.663 84.511,75.75 84.511,75.75 84.511,75.836 84.511,75.663 85.439,75.75 85.439,75.75 85.439,75.836 85.439,75.75 
		85.439,75.75 85.439,76.01 85.439,75.836 85.439,75.923 86.371,76.095 86.371,75.836 86.371,75.923 86.371,75.923 86.371,76.01 
		86.371,76.01 86.371,75.923 86.371,76.01 87.292,76.01 87.292,75.836 87.292,75.923 87.292,76.01 87.292,76.095 88.224,76.095 
		88.224,76.357 88.224,76.01 	"/>
	
		<polyline fill="none" stroke="#84D2F6" stroke-width="1.5" stroke-linecap="round" stroke-linejoin="round" stroke-miterlimit="10" points="
		88.224,76.01 88.224,76.357 88.224,76.095 88.224,76.271 88.224,76.271 88.224,76.184 88.224,76.184 89.165,76.271 89.165,76.184 
		89.165,76.184 89.165,76.357 89.165,76.442 89.165,76.184 90.095,76.357 90.095,76.531 90.095,76.531 90.095,76.357 90.095,76.442 
		90.095,76.531 90.095,76.442 90.095,76.442 90.095,76.357 91.027,76.442 91.027,76.531 91.027,76.531 91.027,76.271 91.027,76.442 
		91.027,76.531 91.027,76.442 91.027,76.616 91.947,76.531 91.947,76.357 91.947,76.442 91.947,76.442 91.947,76.531 91.947,76.616 
		91.947,76.531 91.947,76.531 91.947,76.442 92.878,76.531 92.878,76.616 92.878,76.442 92.878,76.531 92.878,76.531 92.878,76.357 
		92.878,76.705 92.878,76.616 93.809,76.705 	"/>
	
		<polyline fill="none" stroke="#84D2F6" stroke-width="1.5" stroke-linecap="round" stroke-linejoin="round" stroke-miterlimit="10" points="
		93.809,76.705 93.809,76.531 93.809,76.357 93.809,76.616 93.809,76.531 93.809,76.705 93.809,76.616 93.809,76.616 94.749,76.531 
		94.749,76.705 94.749,76.705 94.749,76.616 94.749,76.705 94.749,76.616 94.749,76.705 94.749,76.876 95.682,76.705 95.682,76.876 
		95.682,76.705 95.682,76.792 95.682,76.876 95.682,76.963 95.682,76.876 95.682,77.052 95.682,76.963 96.612,76.963 96.612,77.052 
		96.612,76.963 96.612,76.876 96.612,77.137 97.535,77.052 97.535,77.226 97.535,76.963 97.535,77.137 97.535,77.137 97.535,77.226 
		97.535,77.052 97.535,77.226 97.535,77.226 98.463,77.137 98.463,77.398 98.463,77.398 98.463,77.313 98.463,77.226 98.463,77.226 
		98.463,77.226 98.463,77.226 	"/>
	
		<polyline fill="none" stroke="#84D2F6" stroke-width="1.5" stroke-linecap="round" stroke-linejoin="round" stroke-miterlimit="10" points="
		98.463,77.226 99.396,77.313 99.396,77.313 99.396,77.398 99.396,77.313 99.396,77.398 99.396,77.398 99.396,77.313 99.396,77.573 
		99.396,77.226 100.338,77.398 100.338,77.573 100.338,77.313 100.338,77.573 100.338,77.485 100.338,77.573 100.338,77.573 
		100.338,77.398 101.267,77.573 101.267,77.658 101.267,77.485 101.267,77.485 101.267,77.573 101.267,77.485 101.267,77.573 
		101.267,77.573 101.267,77.313 102.19,77.573 102.19,77.573 102.19,77.573 102.19,77.485 102.19,77.573 102.19,77.658 
		102.19,77.832 102.19,77.573 103.121,77.747 103.121,77.832 103.121,77.658 103.121,77.573 103.121,77.832 103.121,77.658 
		103.121,77.573 103.121,77.918 103.121,77.573 104.053,77.573 104.053,77.573 104.053,77.573 104.053,77.658 104.053,77.658 
		104.053,77.747 	"/>
	
		<polyline fill="none" stroke="#84D2F6" stroke-width="1.5" stroke-linecap="round" stroke-linejoin="round" stroke-miterlimit="10" points="
		104.053,77.747 104.053,77.832 104.053,77.832 104.981,77.747 104.981,77.918 104.981,77.747 104.981,77.747 104.981,77.832 
		104.981,77.832 104.981,77.832 104.981,77.918 105.925,77.832 105.925,77.747 105.925,77.832 105.925,77.918 105.925,78.005 
		105.925,77.832 105.925,77.918 105.925,77.918 106.834,78.094 106.834,78.094 106.834,77.918 106.834,78.005 106.834,77.918 
		106.834,78.005 106.834,78.005 107.775,77.918 107.775,78.094 107.775,78.179 107.775,77.918 107.775,78.179 107.775,78.179 
		107.775,78.266 108.705,78.005 108.705,78.179 108.705,78.179 108.705,78.179 108.705,78.179 108.705,78.353 108.705,78.094 
		108.705,78.094 109.638,78.179 109.638,78.179 109.638,78.179 109.638,78.179 109.638,78.094 	"/>
	
		<polyline fill="none" stroke="#84D2F6" stroke-width="1.5" stroke-linecap="round" stroke-linejoin="round" stroke-miterlimit="10" points="
		109.638,78.094 109.638,78.353 109.638,78.179 109.638,78.353 110.566,78.179 110.566,78.353 110.566,78.179 110.566,78.179 
		110.566,78.266 110.566,78.266 110.566,78.179 110.566,78.179 111.488,78.179 111.488,78.179 111.488,78.179 111.488,78.094 
		111.488,78.179 111.488,78.44 111.488,78.094 112.419,78.179 112.419,78.094 112.419,78.179 112.419,78.179 112.419,78.179 
		112.419,78.266 112.419,78.179 112.419,78.266 112.419,78.179 113.363,78.353 113.363,78.179 113.363,78.179 113.363,78.179 
		113.363,78.179 113.363,78.094 113.363,78.094 113.363,78.266 114.292,78.094 114.292,78.179 114.292,78.179 114.292,78.094 
		114.292,78.179 114.292,78.005 114.292,78.353 114.292,78.353 114.292,78.266 115.223,78.527 115.223,78.44 115.223,78.353 	"/>
	
		<polyline fill="none" stroke="#84D2F6" stroke-width="1.5" stroke-linecap="round" stroke-linejoin="round" stroke-miterlimit="10" points="
		115.223,78.353 115.223,78.44 115.223,78.353 115.223,78.353 115.223,78.527 115.223,78.44 116.156,78.094 116.156,78.616 
		116.156,78.527 116.156,78.44 116.156,78.527 116.156,78.44 116.156,78.527 116.156,78.527 116.156,78.353 117.073,78.527 
		117.073,78.527 117.073,78.527 117.073,78.616 117.073,78.527 117.073,78.616 117.073,78.527 117.073,78.7 118.006,78.527 
		118.006,78.616 118.006,78.787 118.006,78.616 118.006,78.7 118.006,78.787 118.006,78.616 118.006,78.874 118.948,78.787 
		118.948,78.616 118.948,78.874 118.948,78.874 118.948,78.527 118.948,78.7 118.948,78.527 118.948,78.7 119.876,78.7 
		119.876,78.874 119.876,78.7 119.876,78.787 119.876,78.874 119.876,78.616 119.876,78.7 119.876,78.616 119.876,78.527 
		120.81,78.7 120.81,78.874 	"/>
	
		<polyline fill="none" stroke="#84D2F6" stroke-width="1.5" stroke-linecap="round" stroke-linejoin="round" stroke-miterlimit="10" points="
		120.81,78.874 120.81,78.787 120.81,78.616 120.81,78.527 120.81,78.7 120.81,78.787 120.81,78.874 121.73,78.7 121.73,78.874 
		121.73,78.7 121.73,78.7 121.73,78.874 121.73,78.874 121.73,78.874 121.73,78.874 122.662,78.7 122.662,79.047 122.662,79.136 
		122.662,78.874 122.662,78.874 122.662,78.787 122.662,78.874 122.662,78.787 123.59,78.96 123.59,79.221 123.59,79.136 
		123.59,78.874 123.59,78.96 123.59,78.96 123.59,78.874 124.534,78.874 124.534,79.136 124.534,78.96 124.534,78.874 
		124.534,78.96 124.534,79.047 124.534,78.874 124.534,79.047 125.465,79.136 125.465,79.221 125.465,79.047 125.465,78.96 
		125.465,79.136 125.465,79.047 125.465,79.136 125.465,78.96 125.465,79.047 	"/>
	
		<polyline fill="none" stroke="#84D2F6" stroke-width="1.5" stroke-linecap="round" stroke-linejoin="round" stroke-miterlimit="10" points="
		125.465,79.047 126.394,79.047 126.394,78.96 126.394,79.136 126.394,79.221 126.394,79.047 126.394,79.308 126.394,78.96 
		126.394,79.136 127.318,78.874 127.318,78.96 127.318,78.96 127.318,79.047 127.318,79.136 127.318,78.874 127.318,79.136 
		127.318,78.96 127.318,78.874 128.249,78.874 128.249,78.874 128.249,78.787 128.249,78.874 128.249,79.047 128.249,78.874 
		128.249,78.874 129.177,79.047 129.177,78.874 129.177,79.047 129.177,78.96 129.177,79.047 129.177,78.96 129.177,79.047 
		129.177,78.874 129.177,78.874 130.108,78.96 130.108,78.874 130.108,78.787 130.108,78.874 130.108,78.96 130.108,79.136 
		130.108,78.874 130.108,79.047 131.052,78.787 131.052,78.874 131.052,78.96 131.052,78.874 131.052,78.874 131.052,78.616 
		131.052,78.874 131.052,78.874 	"/>
	
		<polyline fill="none" stroke="#84D2F6" stroke-width="1.5" stroke-linecap="round" stroke-linejoin="round" stroke-miterlimit="10" points="
		131.052,78.874 131.052,79.047 131.961,79.047 131.961,79.221 131.961,78.874 131.961,78.874 131.961,78.96 131.961,78.874 
		131.961,78.874 132.903,78.96 132.903,79.136 132.903,79.047 132.903,79.136 132.903,79.047 132.903,79.047 132.903,79.136 
		132.903,78.96 132.903,79.221 133.834,79.136 133.834,79.136 133.834,79.482 133.834,79.395 133.834,79.221 133.834,79.136 
		133.834,79.136 134.766,79.047 134.766,79.221 134.766,79.221 134.766,79.308 134.766,79.395 134.766,79.221 134.766,79.221 
		134.766,79.221 134.766,79.221 135.695,79.221 135.695,79.482 135.695,79.221 135.695,79.221 135.695,79.395 135.695,79.308 
		135.695,79.395 135.695,79.308 136.616,79.395 136.616,79.221 136.616,79.482 136.616,79.308 136.616,79.395 136.616,79.395 	"/>
	
		<polyline fill="none" stroke="#84D2F6" stroke-width="1.5" stroke-linecap="round" stroke-linejoin="round" stroke-miterlimit="10" points="
		136.616,79.395 136.616,79.308 136.616,79.569 136.616,79.395 137.547,79.308 137.547,79.308 137.547,79.569 137.547,79.569 
		137.547,79.395 137.547,79.482 137.547,79.482 137.547,79.569 138.488,79.482 138.488,79.569 138.488,79.395 138.488,79.395 
		138.488,79.569 138.488,79.569 138.488,79.482 138.488,79.569 139.42,79.654 139.42,79.395 139.42,79.569 139.42,79.569 
		139.42,79.569 139.42,79.482 140.352,79.743 140.352,79.569 140.352,79.569 140.352,79.482 140.352,79.569 140.352,79.482 
		140.352,79.569 140.352,79.569 141.272,79.654 141.272,79.569 141.272,79.569 141.272,79.743 141.272,79.569 141.272,79.395 
		141.272,79.395 141.272,79.654 142.2,79.482 142.2,79.569 142.2,79.569 142.2,79.654 142.2,79.569 	"/>
	
		<polyline fill="none" stroke="#84D2F6" stroke-width="1.5" stroke-linecap="round" stroke-linejoin="round" stroke-miterlimit="10" points="
		142.2,79.569 142.2,79.482 142.2,79.569 142.2,79.654 142.2,79.654 143.133,79.569 143.133,79.743 143.133,79.743 143.133,79.654 
		143.133,79.654 143.133,79.916 143.133,79.569 143.133,79.654 144.076,79.654 144.076,79.743 144.076,79.743 144.076,79.916 
		144.076,79.743 144.076,79.83 144.076,79.83 144.076,79.743 144.076,79.654 145.004,79.654 145.004,79.743 145.004,79.569 
		145.004,79.743 145.004,79.916 145.004,79.743 145.004,79.916 145.004,79.569 145.938,79.654 145.938,79.916 145.938,79.743 
		145.938,79.654 145.938,79.743 145.938,79.916 145.938,79.83 145.938,79.654 145.938,79.83 146.858,79.83 146.858,79.743 
		146.858,79.743 146.858,79.654 146.858,79.654 146.858,79.916 146.858,79.743 147.786,79.743 147.786,79.654 147.786,79.743 	"/>
	
		<polyline fill="none" stroke="#84D2F6" stroke-width="1.5" stroke-linecap="round" stroke-linejoin="round" stroke-miterlimit="10" points="
		147.786,79.743 147.786,79.743 147.786,79.569 147.786,79.654 147.786,79.654 147.786,79.743 148.718,79.83 148.718,79.83 
		148.718,79.743 148.718,79.654 148.718,79.743 148.718,79.83 148.718,79.743 149.661,80.002 149.661,79.83 149.661,79.654 
		149.661,79.83 149.661,79.654 149.661,79.569 149.661,79.743 149.661,79.743 149.661,79.654 150.593,79.916 150.593,79.743 
		150.593,79.654 150.593,79.743 150.593,79.569 150.593,79.569 150.593,79.654 150.593,79.569 151.512,79.569 151.512,79.569 
		151.512,79.654 151.512,79.654 151.512,79.569 151.512,79.743 151.512,79.743 152.445,79.654 152.445,79.569 152.445,79.743 
		152.445,79.83 152.445,79.743 152.445,79.654 152.445,79.916 152.445,79.916 153.376,79.83 153.376,79.743 	"/>
	
		<polyline fill="none" stroke="#84D2F6" stroke-width="1.5" stroke-linecap="round" stroke-linejoin="round" stroke-miterlimit="10" points="
		153.376,79.743 153.376,79.743 153.376,79.916 153.376,79.743 153.376,79.916 153.376,79.743 153.376,79.83 154.304,79.743 
		154.304,79.743 154.304,79.83 154.304,79.654 154.304,79.743 154.304,79.916 154.304,79.83 154.304,79.83 155.236,79.916 
		155.236,79.916 155.236,79.743 155.236,79.83 155.236,79.743 155.236,79.83 155.236,79.916 155.236,79.743 155.236,79.916 
		156.179,79.83 156.179,79.743 156.179,80.002 156.179,79.916 156.179,79.83 156.179,79.743 156.179,79.83 156.179,79.916 
		157.098,79.83 157.098,80.089 157.098,79.83 157.098,79.916 157.098,79.83 157.098,79.83 157.098,80.002 157.098,80.002 
		157.098,80.089 158.03,79.916 158.03,79.916 158.03,79.916 158.03,79.916 158.03,79.916 158.03,79.83 158.03,79.916 	"/>
	
		<polyline fill="none" stroke="#84D2F6" stroke-width="1.5" stroke-linecap="round" stroke-linejoin="round" stroke-miterlimit="10" points="
		158.03,79.916 158.961,79.916 158.961,80.002 158.961,80.089 158.961,80.002 158.961,79.916 158.961,80.002 158.961,79.916 
		158.961,80.174 158.961,80.002 159.894,80.089 159.894,80.263 159.894,79.916 159.894,80.263 159.894,80.174 159.894,80.174 
		160.823,80.089 160.823,79.916 160.823,80.089 160.823,80.002 160.823,80.089 160.823,80.174 160.823,80.002 160.823,80.174 
		160.823,80.174 161.743,80.089 161.743,80.089 161.743,80.263 161.743,80.089 161.743,80.174 161.743,80.263 161.743,80.263 
		161.743,80.263 162.685,80.002 162.685,80.263 162.685,80.437 162.685,80.263 162.685,80.174 162.685,80.263 162.685,80.263 
		162.685,80.263 162.685,80.263 163.615,80.263 163.615,80.35 163.615,80.263 163.615,80.174 163.615,80.35 163.615,80.174 	"/>
	
		<polyline fill="none" stroke="#84D2F6" stroke-width="1.5" stroke-linecap="round" stroke-linejoin="round" stroke-miterlimit="10" points="
		163.615,80.174 163.615,80.174 164.548,80.263 164.548,80.263 164.548,80.263 164.548,80.263 164.548,80.263 164.548,80.089 
		164.548,80.263 164.548,80.263 164.548,80.174 165.48,80.35 165.48,80.263 165.48,80.263 165.48,80.263 165.48,80.263 
		165.48,80.002 165.48,80.002 165.48,80.263 166.4,80.089 166.4,80.263 166.4,80.263 166.4,80.174 166.4,80.263 166.4,80.174 
		166.4,80.263 166.4,80.089 166.4,80.263 167.328,80.263 167.328,80.002 167.328,80.263 167.328,80.089 167.328,80.174 
		167.328,80.002 167.328,80.089 167.328,80.002 168.271,80.089 168.271,80.174 168.271,80.263 168.271,80.35 168.271,80.089 
		168.271,80.263 168.271,80.174 168.271,80.002 168.271,80.263 169.203,80.263 169.203,80.174 169.203,80.089 169.203,80.263 	"/>
	
		<polyline fill="none" stroke="#84D2F6" stroke-width="1.5" stroke-linecap="round" stroke-linejoin="round" stroke-miterlimit="10" points="
		169.203,80.263 169.203,80.174 169.203,80.089 170.132,80.263 170.132,80.263 170.132,80.174 170.132,80.263 170.132,80.263 
		170.132,80.263 170.132,80.263 170.132,80.263 171.054,80.263 171.054,80.35 171.054,80.35 171.054,80.263 171.054,80.35 
		171.054,80.437 171.054,80.437 171.054,80.263 171.987,80.437 171.987,80.263 171.987,80.524 171.987,80.263 171.987,80.263 
		171.987,80.35 171.987,80.263 171.987,80.263 171.987,80.35 172.916,80.263 172.916,80.437 172.916,80.437 172.916,80.263 
		172.916,80.35 172.916,80.611 172.916,80.524 172.916,80.35 173.845,80.611 173.845,80.263 173.845,80.437 173.845,80.263 
		173.845,80.35 173.845,80.611 173.845,80.437 173.845,80.611 173.845,80.696 174.789,80.611 174.789,80.437 174.789,80.611 
		174.789,80.524 	"/>
	
		<polyline fill="none" stroke="#84D2F6" stroke-width="1.5" stroke-linecap="round" stroke-linejoin="round" stroke-miterlimit="10" points="
		174.789,80.524 174.789,80.35 174.789,80.611 174.789,80.437 174.789,80.437 175.719,80.35 175.719,80.611 175.719,80.524 
		175.719,80.524 175.719,80.263 175.719,80.524 175.719,80.437 175.719,80.611 176.639,80.611 176.639,80.35 176.639,80.611 
		176.639,80.437 176.639,80.524 176.639,80.437 176.639,80.611 176.639,80.611 177.572,80.524 177.572,80.785 177.572,80.611 
		177.572,80.611 177.572,80.524 177.572,80.524 177.572,80.611 177.572,80.524 177.572,80.611 178.504,80.611 178.504,80.611 
		178.504,80.785 178.504,80.611 178.504,80.872 178.504,80.696 178.504,80.872 178.504,80.785 179.433,80.611 179.433,80.611 
		179.433,80.696 179.433,80.611 179.433,80.958 179.433,80.958 179.433,80.611 179.433,80.696 179.433,80.958 180.373,80.696 
		180.373,80.785 	"/>
	
		<polyline fill="none" stroke="#84D2F6" stroke-width="1.5" stroke-linecap="round" stroke-linejoin="round" stroke-miterlimit="10" points="
		180.373,80.785 180.373,80.524 180.373,80.872 180.373,80.696 180.373,80.696 181.287,80.611 181.287,80.785 181.287,80.611 
		181.287,80.611 181.287,80.611 181.287,80.785 181.287,80.785 181.287,80.872 181.287,80.785 182.224,80.785 182.224,80.696 
		182.224,80.611 182.224,80.611 182.224,80.872 182.224,80.696 182.224,80.958 182.224,80.958 183.158,80.696 183.158,80.958 
		183.158,80.785 183.158,80.785 183.158,80.872 183.158,80.872 183.158,80.696 183.158,80.872 183.158,80.785 184.088,80.611 
		184.088,80.785 184.088,80.785 184.088,80.872 184.088,80.872 184.088,80.696 184.088,80.872 185.019,80.872 185.019,80.785 
		185.019,80.611 185.019,80.696 185.019,80.785 185.019,80.611 185.019,80.696 185.019,80.696 185.019,80.785 185.96,80.785 	"/>
	
		<polyline fill="none" stroke="#84D2F6" stroke-width="1.5" stroke-linecap="round" stroke-linejoin="round" stroke-miterlimit="10" points="
		185.96,80.785 185.96,80.785 185.96,80.696 185.96,80.785 185.96,80.785 185.96,80.872 186.872,80.958 186.872,80.696 
		186.872,80.785 186.872,80.785 186.872,80.611 186.872,80.696 186.872,80.696 186.872,80.611 186.872,80.872 187.813,80.611 
		187.813,80.611 187.813,80.785 187.813,80.611 187.813,80.872 187.813,80.785 187.813,80.611 188.742,80.785 188.742,80.785 
		188.742,80.696 188.742,81.042 188.742,80.872 188.742,80.785 188.742,80.958 188.742,80.872 188.742,80.958 189.675,81.042 
		189.675,80.958 189.675,80.872 189.675,80.872 189.675,80.958 189.675,81.042 189.675,81.042 189.675,81.131 190.607,81.131 
		190.607,81.042 190.607,80.958 190.607,80.958 190.607,80.958 190.607,81.216 190.607,81.216 190.607,81.042 	"/>
	
		<polyline fill="none" stroke="#84D2F6" stroke-width="1.5" stroke-linecap="round" stroke-linejoin="round" stroke-miterlimit="10" points="
		190.607,81.042 191.524,81.042 191.524,80.872 191.524,81.042 191.524,80.958 191.524,81.042 191.524,81.131 191.524,81.042 
		191.524,81.131 192.455,81.042 192.455,81.042 192.455,81.216 192.455,81.131 192.455,81.216 192.455,80.872 192.455,81.042 
		192.455,81.131 193.398,81.131 193.398,81.216 193.398,81.216 193.398,81.131 193.398,81.131 193.398,81.042 193.398,80.958 
		193.398,80.958 194.33,81.131 194.33,81.131 194.33,81.305 194.33,81.216 194.33,80.958 194.33,81.131 194.33,80.958 
		194.33,81.131 194.33,81.216 195.259,81.131 195.259,81.305 195.259,81.305 195.259,81.216 195.259,81.305 195.259,81.305 
		195.259,81.216 195.259,81.216 196.181,81.392 196.181,81.305 196.181,81.305 196.181,81.392 196.181,81.216 196.181,81.305 
		196.181,81.131 	"/>
	
		<polyline fill="none" stroke="#84D2F6" stroke-width="1.5" stroke-linecap="round" stroke-linejoin="round" stroke-miterlimit="10" points="
		196.181,81.131 196.181,81.216 196.181,81.305 197.114,81.305 197.114,81.216 197.114,81.216 197.114,81.392 197.114,81.305 
		197.114,81.392 197.114,81.216 197.114,81.305 198.042,81.479 198.042,81.216 198.042,81.392 198.042,81.479 198.042,81.392 
		198.042,81.479 198.042,81.479 198.042,81.305 198.042,81.392 198.972,81.479 198.972,81.305 198.972,81.479 198.972,81.305 
		198.972,81.392 198.972,81.305 198.972,81.392 198.972,81.479 199.916,81.305 199.916,81.305 199.916,81.392 199.916,81.131 
		199.916,81.392 199.916,81.305 199.916,81.564 199.916,81.305 199.916,81.392 200.837,81.479 200.837,81.564 200.837,81.392 
		200.837,81.479 200.837,81.564 200.837,81.392 200.837,81.392 201.768,81.564 201.768,81.564 201.768,81.653 201.768,81.479 
		201.768,81.392 201.768,81.479 	"/>
	
		<polyline fill="none" stroke="#84D2F6" stroke-width="1.5" stroke-linecap="round" stroke-linejoin="round" stroke-miterlimit="10" points="
		201.768,81.479 201.768,81.653 201.768,81.392 201.768,81.653 202.695,81.564 202.695,81.479 202.695,81.653 202.695,81.479 
		202.695,81.392 202.695,81.479 202.695,81.305 202.695,81.392 203.626,81.392 203.626,81.564 203.626,81.216 203.626,81.479 
		203.626,81.392 203.626,81.305 203.626,81.305 203.626,81.216 204.558,81.305 204.558,81.479 204.558,81.392 204.558,81.392 
		204.558,81.305 204.558,81.392 204.558,81.131 204.558,81.305 205.501,81.305 205.501,81.392 205.501,81.216 205.501,81.564 
		205.501,81.305 205.501,81.305 205.501,81.392 205.501,81.216 206.422,81.216 206.422,81.305 206.422,81.131 206.422,81.392 
		206.422,81.392 206.422,81.479 206.422,81.392 207.353,81.392 207.353,81.479 207.353,81.479 207.353,81.305 	"/>
	
		<polyline fill="none" stroke="#84D2F6" stroke-width="1.5" stroke-linecap="round" stroke-linejoin="round" stroke-miterlimit="10" points="
		207.353,81.305 207.353,81.653 207.353,81.827 207.353,81.479 207.353,81.479 207.353,81.653 208.287,81.738 208.287,81.653 
		208.287,81.479 208.287,81.564 208.287,81.653 208.287,81.738 208.287,81.479 208.287,81.653 209.212,81.827 209.212,81.653 
		209.212,81.653 209.212,81.738 209.212,81.564 209.212,81.827 209.212,81.653 209.212,81.564 209.212,81.653 210.145,81.653 
		210.145,81.738 210.145,81.653 210.145,81.653 210.145,81.564 210.145,81.653 210.145,81.653 210.145,81.738 211.087,81.738 
		211.087,81.653 211.087,81.738 211.087,81.827 211.087,81.653 211.087,81.392 211.087,81.738 211.087,81.653 211.087,81.827 
		212.007,81.914 212.007,81.653 212.007,81.738 212.007,81.827 212.007,81.738 212.007,81.827 212.007,81.653 212.94,81.564 
		212.94,81.653 212.94,81.914 	"/>
	
		<polyline fill="none" stroke="#84D2F6" stroke-width="1.5" stroke-linecap="round" stroke-linejoin="round" stroke-miterlimit="10" points="
		212.94,81.914 212.94,81.914 212.94,81.738 212.94,81.914 212.94,81.827 212.94,81.653 212.94,81.827 213.872,81.738 
		213.872,81.738 213.872,81.999 213.872,81.914 213.872,81.914 213.872,81.827 213.872,81.738 214.797,81.738 214.797,81.827 
		214.797,81.738 214.797,81.999 214.797,81.827 214.797,81.914 214.797,81.999 214.797,82.085 214.797,81.999 215.73,81.999 
		215.73,81.738 215.73,81.999 215.73,81.738 215.73,81.914 215.73,81.914 215.73,81.827 215.73,81.738 216.653,81.999 
		216.653,81.999 216.653,81.999 216.653,81.914 216.653,81.999 216.653,81.999 216.653,82.085 216.653,82.085 217.583,81.999 
		217.583,81.999 217.583,81.999 217.583,81.999 217.583,81.999 217.583,81.914 217.583,81.999 217.583,81.999 218.526,82.085 	"/>
	
		<polyline fill="none" stroke="#84D2F6" stroke-width="1.5" stroke-linecap="round" stroke-linejoin="round" stroke-miterlimit="10" points="
		218.526,82.085 218.526,81.999 218.526,81.999 218.526,81.999 218.526,81.827 218.526,81.999 218.526,81.999 218.526,82.085 
		219.458,81.999 219.458,82.173 219.458,82.173 219.458,81.999 219.458,81.999 219.458,82.173 219.458,81.999 219.458,81.914 
		220.39,82.085 220.39,82.258 220.39,81.999 220.39,81.999 220.39,81.999 220.39,81.999 220.39,81.999 220.39,81.999 220.39,81.914 
		221.307,82.085 221.307,81.999 221.307,82.085 221.307,81.999 221.307,82.085 221.307,81.999 222.238,81.999 222.238,81.914 
		222.238,82.173 222.238,82.085 222.238,81.914 222.238,82.085 222.238,81.999 222.238,82.085 222.238,81.827 223.167,81.827 
		223.167,81.999 223.167,81.827 223.167,82.085 223.167,81.999 223.167,81.999 223.167,81.999 223.167,82.085 	"/>
	
		<polyline fill="none" stroke="#84D2F6" stroke-width="1.5" stroke-linecap="round" stroke-linejoin="round" stroke-miterlimit="10" points="
		223.167,82.085 224.111,81.999 224.111,81.999 224.111,81.999 224.111,81.914 224.111,82.173 224.111,81.827 224.111,81.999 
		224.111,82.173 224.111,81.914 225.042,81.827 225.042,82.085 225.042,81.914 225.042,81.999 225.042,81.999 225.042,81.999 
		225.042,81.999 225.042,82.085 225.964,81.999 225.964,81.914 225.964,82.085 225.964,81.999 225.964,82.173 225.964,82.173 
		225.964,82.347 225.964,82.258 225.964,81.999 226.897,82.173 226.897,82.085 226.897,82.258 226.897,82.258 226.897,81.999 
		226.897,82.258 226.897,82.085 226.897,82.347 227.823,82.085 227.823,82.258 227.823,81.999 227.823,82.258 228.754,82.258 
		228.754,82.173 228.754,82.258 228.754,82.258 228.754,82.173 228.754,82.173 	"/>
	
		<polyline fill="none" stroke="#84D2F6" stroke-width="1.5" stroke-linecap="round" stroke-linejoin="round" stroke-miterlimit="10" points="
		228.754,82.173 228.754,82.085 228.754,81.999 229.698,82.347 229.698,82.258 229.698,82.347 229.698,82.258 229.698,82.085 
		229.698,82.347 229.698,82.347 229.698,82.258 229.698,82.347 230.629,82.347 230.629,82.519 230.629,82.347 230.629,82.347 
		230.629,82.258 230.629,82.347 231.549,82.432 231.549,82.347 231.549,82.347 231.549,82.347 231.549,82.347 231.549,82.432 
		231.549,82.347 231.549,82.606 231.549,82.432 232.482,82.258 232.482,82.347 232.482,82.347 232.482,82.347 232.482,82.258 
		232.482,82.347 232.482,82.347 233.414,82.347 233.414,82.347 233.414,82.519 233.414,82.347 233.414,82.606 233.414,82.695 
		233.414,82.432 233.414,82.432 234.339,82.258 234.339,82.432 234.339,82.347 234.339,82.432 234.339,82.432 	"/>
	
		<polyline fill="none" stroke="#84D2F6" stroke-width="1.5" stroke-linecap="round" stroke-linejoin="round" stroke-miterlimit="10" points="
		234.339,82.432 234.339,82.606 234.339,82.606 234.339,82.519 235.283,82.695 235.283,82.347 235.283,82.519 235.283,82.606 
		235.283,82.432 235.283,82.347 235.283,82.432 235.283,82.606 235.283,82.606 236.195,82.432 236.195,82.695 236.195,82.606 
		236.195,82.606 236.195,82.519 236.195,82.695 236.195,82.606 237.134,82.606 237.134,82.519 237.134,82.695 237.134,82.695 
		237.134,82.432 237.134,82.695 238.068,82.695 238.068,82.695 238.068,82.695 238.068,82.519 238.068,82.519 238.068,82.606 
		239,82.606 239,82.695 239,82.606 239,82.432 239,82.695 239,82.606 239,82.519 239,82.347 239,82.606 239.925,82.519 
		239.925,82.606 239.925,82.695 	"/>
	
		<polyline fill="none" stroke="#84D2F6" stroke-width="1.5" stroke-linecap="round" stroke-linejoin="round" stroke-miterlimit="10" points="
		239.925,82.695 239.925,82.432 239.925,82.695 239.925,82.519 239.925,82.519 240.857,82.432 240.857,82.519 240.857,82.347 
		240.857,82.606 240.857,82.606 240.857,82.519 240.857,82.519 240.857,82.695 241.781,82.432 241.781,82.519 241.781,82.606 
		241.781,82.606 241.781,82.519 241.781,82.695 241.781,82.519 242.712,82.519 242.712,82.432 242.712,82.432 242.712,82.519 
		242.712,82.519 242.712,82.695 242.712,82.432 242.712,82.695 243.652,82.432 243.652,82.432 243.652,82.606 243.652,82.606 
		243.652,82.519 243.652,82.695 243.652,82.695 244.585,82.869 244.585,82.606 244.585,82.695 244.585,82.606 244.585,82.519 
		244.585,82.695 244.585,82.695 244.585,82.695 244.585,82.869 245.517,82.695 245.517,82.78 	"/>
	
		<polyline fill="none" stroke="#84D2F6" stroke-width="1.5" stroke-linecap="round" stroke-linejoin="round" stroke-miterlimit="10" points="
		245.517,82.78 245.517,82.519 245.517,82.78 245.517,82.695 245.517,82.695 245.517,82.695 245.517,82.695 246.435,82.695 
		246.435,82.78 246.435,82.695 246.435,82.78 246.435,82.695 246.435,82.695 246.435,82.954 246.435,82.695 246.435,82.78 
		247.365,82.869 247.365,82.78 247.365,82.954 247.365,82.869 247.365,82.695 247.365,82.695 247.365,82.78 248.298,82.78 
		248.298,82.954 248.298,82.695 248.298,82.78 248.298,82.954 248.298,82.869 248.298,82.695 248.298,82.78 248.298,82.869 
		249.24,82.954 249.24,82.78 249.24,83.041 249.24,82.695 249.24,83.041 249.24,82.78 249.24,82.954 249.24,83.041 250.17,82.954 
		250.17,82.954 250.17,82.78 250.17,82.954 250.17,82.869 250.17,83.041 250.17,83.041 250.17,82.78 250.17,83.127 	"/>
	
		<polyline fill="none" stroke="#84D2F6" stroke-width="1.5" stroke-linecap="round" stroke-linejoin="round" stroke-miterlimit="10" points="
		250.17,83.127 251.091,83.041 251.091,82.954 251.091,83.041 251.091,82.869 251.091,82.869 251.091,82.954 251.091,83.041 
		251.091,83.216 252.025,82.869 252.025,83.041 252.025,82.954 252.025,82.869 252.025,82.869 252.025,83.041 252.025,83.041 
		252.025,83.216 252.025,83.041 252.949,83.041 252.949,83.127 252.949,82.954 252.949,83.041 252.949,82.954 252.949,83.127 
		252.949,83.127 253.881,82.869 253.881,83.216 253.881,83.041 253.881,83.041 253.881,82.954 253.881,83.041 253.881,83.041 
		253.881,83.216 253.881,83.127 254.824,83.041 254.824,83.301 254.824,83.041 254.824,83.041 254.824,83.127 254.824,83.041 
		254.824,83.127 254.824,83.301 255.746,83.216 255.746,83.041 255.746,83.041 255.746,83.301 255.746,83.041 255.746,83.127 
		255.746,83.127 255.746,83.301 	"/>
	
		<polyline fill="none" stroke="#84D2F6" stroke-width="1.5" stroke-linecap="round" stroke-linejoin="round" stroke-miterlimit="10" points="
		255.746,83.301 255.746,82.869 256.677,83.127 256.677,83.216 256.677,83.216 256.677,83.041 256.677,83.041 256.677,83.216 
		256.677,83.127 256.677,83.387 257.609,83.041 257.609,83.127 257.609,83.301 257.609,83.301 257.609,83.387 257.609,83.127 
		257.609,83.216 257.609,83.474 257.609,83.301 258.535,83.127 258.535,83.127 258.535,83.216 258.535,83.041 258.535,83.041 
		258.535,83.387 258.535,83.041 258.535,82.869 259.466,83.216 259.466,83.041 259.466,83.301 259.466,83.216 259.466,83.301 
		259.466,83.216 259.466,83.127 259.466,83.127 259.466,83.041 260.41,83.301 260.41,83.041 260.41,83.041 260.41,83.216 
		260.41,83.127 260.41,83.041 261.322,82.954 261.322,83.041 261.322,83.127 261.322,83.041 261.322,83.041 261.322,83.127 	"/>
	
		<polyline fill="none" stroke="#84D2F6" stroke-width="1.5" stroke-linecap="round" stroke-linejoin="round" stroke-miterlimit="10" points="
		261.322,83.127 261.322,83.127 261.322,83.387 261.322,83.127 262.261,83.127 262.261,83.216 262.261,83.216 262.261,83.301 
		262.261,83.216 262.261,83.387 262.261,83.216 263.195,83.216 263.195,83.301 263.195,83.387 263.195,83.127 263.195,83.474 
		263.195,83.387 263.195,83.301 263.195,83.387 264.126,83.561 264.126,83.387 264.126,83.387 264.126,83.387 264.126,83.301 
		264.126,83.387 264.126,83.387 264.126,83.301 265.054,83.387 265.054,83.387 265.054,83.474 265.054,83.561 265.054,83.387 
		265.054,83.301 265.054,83.474 265.054,83.387 265.054,83.387 265.975,83.387 265.975,83.474 265.975,83.387 265.975,83.561 
		265.975,83.648 265.975,83.387 266.907,83.387 266.907,83.474 266.907,83.737 266.907,83.474 266.907,83.474 	"/>
	
		<polyline fill="none" stroke="#84D2F6" stroke-width="1.5" stroke-linecap="round" stroke-linejoin="round" stroke-miterlimit="10" points="
		266.907,83.474 266.907,83.561 266.907,83.561 266.907,83.387 267.849,83.474 267.849,83.648 267.849,83.387 267.849,83.474 
		267.849,83.561 267.849,83.474 267.849,83.474 267.849,83.561 268.779,83.648 268.779,83.561 268.779,83.648 268.779,83.474 
		268.779,83.737 268.779,83.737 268.779,83.648 268.779,83.737 268.779,83.648 269.712,83.561 269.712,83.648 269.712,83.737 
		269.712,83.737 269.712,83.737 269.712,83.648 269.712,83.737 270.644,83.737 270.644,83.561 270.644,83.648 270.644,83.648 
		270.644,83.737 270.644,83.648 270.644,83.822 270.644,83.648 270.644,83.648 271.562,83.996 271.562,83.737 271.562,83.822 
		271.562,83.561 271.562,83.561 271.562,83.737 271.562,83.737 271.562,83.822 272.492,83.737 272.492,83.737 272.492,83.737 	"/>
	
		<polyline fill="none" stroke="#84D2F6" stroke-width="1.5" stroke-linecap="round" stroke-linejoin="round" stroke-miterlimit="10" points="
		272.492,83.737 272.492,83.822 272.492,83.648 272.492,83.737 272.492,83.737 272.492,83.909 272.492,83.909 273.433,83.737 
		273.433,83.737 273.433,83.822 273.433,83.909 273.433,83.822 273.433,83.737 273.433,83.737 274.367,83.822 274.367,83.822 
		274.367,83.909 274.367,83.737 274.367,83.822 274.367,83.737 274.367,83.737 274.367,83.737 274.367,83.648 275.297,83.909 
		275.297,83.737 275.297,83.996 275.297,83.648 275.297,83.909 275.297,83.648 275.297,83.737 275.297,83.909 276.218,83.737 
		276.218,83.822 276.218,83.822 276.218,83.737 276.218,83.737 276.218,83.737 276.218,83.737 276.218,83.737 277.146,83.737 
		277.146,83.561 277.146,83.737 277.146,83.737 277.146,83.737 277.146,83.387 278.08,83.648 278.08,83.648 	"/>
	
		<polyline fill="none" stroke="#84D2F6" stroke-width="1.5" stroke-linecap="round" stroke-linejoin="round" stroke-miterlimit="10" points="
		278.08,83.648 278.08,83.561 278.08,83.737 278.08,83.737 278.08,83.648 278.08,83.737 278.08,83.648 278.08,83.737 
		279.019,83.561 279.019,83.737 279.019,83.387 279.019,83.648 279.019,83.648 279.019,83.737 279.019,83.822 279.019,83.737 
		279.952,83.737 279.952,83.737 279.952,83.737 279.952,83.737 279.952,83.561 279.952,83.648 279.952,83.474 279.952,83.737 
		279.952,83.822 280.873,83.648 280.873,83.648 280.873,83.737 280.873,83.737 280.873,83.737 280.873,83.822 281.804,83.737 
		281.804,83.822 281.804,83.996 281.804,83.909 281.804,83.737 281.804,83.737 281.804,83.909 281.804,83.822 281.804,84.083 
		282.736,83.822 282.736,83.909 282.736,83.737 282.736,83.822 282.736,83.909 282.736,83.822 282.736,83.822 282.736,83.909 	"/>
	
		<polyline fill="none" stroke="#84D2F6" stroke-width="1.5" stroke-linecap="round" stroke-linejoin="round" stroke-miterlimit="10" points="
		282.736,83.909 283.664,83.737 283.664,83.996 283.664,84.083 283.664,83.822 283.664,84.083 283.664,83.822 283.664,83.737 
		283.664,83.822 283.664,83.737 284.595,83.909 284.595,83.909 284.595,84.083 284.595,83.822 284.595,83.909 284.595,83.737 
		284.595,83.737 285.517,83.996 285.517,83.737 285.517,84.083 285.517,83.996 285.517,83.996 285.517,84.083 285.517,84.169 
		286.449,84.083 286.449,83.996 286.449,83.996 286.449,84.083 286.449,84.083 286.449,83.909 286.449,84.083 286.449,84.083 
		287.39,84.083 287.39,83.996 287.39,83.996 287.39,84.083 287.39,83.737 287.39,84.083 287.39,84.083 287.39,84.083 287.39,84.083 
		288.322,84.083 288.322,83.996 288.322,83.909 288.322,84.169 288.322,83.996 288.322,84.083 288.322,84.083 	"/>
	
		<polyline fill="none" stroke="#84D2F6" stroke-width="1.5" stroke-linecap="round" stroke-linejoin="round" stroke-miterlimit="10" points="
		288.322,84.083 289.254,84.083 289.254,84.083 289.254,84.169 289.254,84.083 289.254,83.996 289.254,84.083 289.254,84.083 
		289.254,84.083 290.181,84.083 290.181,84.083 290.181,84.083 290.181,83.996 290.181,84.083 290.181,83.909 290.181,84.083 
		290.181,84.083 291.103,84.343 291.103,84.169 291.103,84.083 291.103,84.169 291.103,84.343 291.103,84.258 291.103,84.343 
		291.103,84.169 291.103,83.909 292.036,84.43 292.036,84.258 292.036,84.169 292.036,84.258 292.036,83.996 292.036,84.169 
		292.036,84.083 292.036,84.258 292.976,84.083 292.976,84.083 292.976,84.343 292.976,84.169 292.976,84.343 292.976,84.258 
		292.976,84.343 292.976,84.258 292.976,84.083 293.908,84.258 293.908,84.258 293.908,84.169 293.908,84.343 	"/>
	
		<polyline fill="none" stroke="#84D2F6" stroke-width="1.5" stroke-linecap="round" stroke-linejoin="round" stroke-miterlimit="10" points="
		293.908,84.343 293.908,84.258 293.908,84.083 294.839,84.083 294.839,84.169 294.839,84.083 294.839,84.169 294.839,84.169 
		294.839,84.343 294.839,84.43 295.762,83.996 295.762,84.169 295.762,84.083 295.762,84.169 295.762,84.169 295.762,84.083 
		295.762,84.169 295.762,84.083 296.687,84.343 296.687,84.083 296.687,84.083 296.687,84.083 296.687,83.909 296.687,84.083 
		296.687,84.169 296.687,84.083 297.621,84.083 297.621,84.169 297.621,84.083 297.621,84.083 297.621,83.909 297.621,84.083 
		298.56,84.083 298.56,84.169 298.56,84.083 298.56,83.996 298.56,83.822 298.56,83.996 298.56,83.996 298.56,84.083 
		299.494,84.169 299.494,84.083 299.494,84.169 299.494,83.996 	"/>
	
		<polyline fill="none" stroke="#84D2F6" stroke-width="1.5" stroke-linecap="round" stroke-linejoin="round" stroke-miterlimit="10" points="
		299.494,83.996 299.494,84.258 299.494,84.169 299.494,84.343 299.494,84.083 300.425,84.343 300.425,84.343 300.425,84.258 
		300.425,84.083 300.425,84.169 	"/>
</g>
<text transform="matrix(1 0 0 1 79.855 58.0952)" fill="#FFFFFF" font-family="'Rockwell'" font-size="48">Fong Lab</text>
</svg>
